<svg height="246.96849" width="715.74799" xmlns="http://www.w3.org/2000/svg"><g fill="#14315d" transform="matrix(5.2626217 0 0 5.2626217 -1355.285057 -2525.98386)"><path d="m352.13807 524.61318h-2.925v.9h8.925v-.9h-2.4v-15.675l-.3.3-.375.225-.75.225-.825.15h-3.825v.9h2.475z"/><path d="m295.43807 524.61318h-3v.9h8.925v-.9h-2.4v-15.675l-.3.3-.375.225-.75.225-.825.15h-3.9v.9h2.625z"/><path d="m362.56308 524.61318h-2.85v.9h9.075v-.9h-2.625v-13.875h6.45v13.875h-2.4v.9h8.85v-.9h-2.925v-15.675l-.225.3-.375.225-.825.225-.9.15h-7.65c.3875-3.22625-.99375-7.7725 1.8-10.35l.525-.375.45-.3.525-.15.6-.075.6-.15.75-.075h.6l.525.075.45.225.375.15.375.225.225.15.15.3.075.225-.075.225-.15.225-.45.225-.375.3c-1.0775.9475-.635 2.22.525 2.775 1.05.54 2.2375-.2675 2.625-1.275.73375-2.45625-1.665-4.3775-3.9-4.65-7.825-.96875-10.445 5.6875-9.825 12.3h-3.225v.9h3.225z"/><path d="m267.38807 514.11318c7.1675.87625 7.74625 10.06375.3 10.95-5.23375.2725-7.9975-4.19625-8.4-8.925h-.975v9.675h.975l.15-.525.15-.375.3-.225.525-.075c1.36.12 2.95.8825 4.275 1.275 2.72.5075 5.85875.29875 8.1-1.5 3.515-2.7525 3.79-9.78625.15-12.525-4.3625-3.49125-15.58625-1.97375-11.7-10.725 4.625-4.905 11.30625-.28875 11.7 5.775h.975v-7.95h-.9c-.6125 3.53625-7.58875-5.36375-13.575 2.1-1.56125 2.23375-1.36625 4.8-.9 7.35 1.55625 4.115 4.9275 4.69125 8.85 5.7"/><path d="m339.98807 522.51318.075.975.225.75.375.6.525.45.525.375.75.3.9.075c2.0025.44 4.3025-.415 5.1-2.475l-.75-.45-.375.6-.6.6-.225.15-.375.225-.375.15h-.825l-.3-.075-.375-.075-.15-.225-.3-.225-.075-.375-.15-.525-.075-.45v-12.15h4.2v-.9h-4.2v-4.8h-.675c-.4625 3.45375-2.3925 4.93-5.85 4.8v.9h3z"/><path d="m328.66307 524.61318h2.55v-12.3l-.15-.525-.225-.525-.225-.225-.375-.3-.375-.225-.45-.15c-2.325-.225-4.15375 1.58625-5.325 3.375v10.875h2.7v.9h-9.15v-.9h2.775v-13.875h-2.775v-.9h4.125l.9-.15.375-.075.375-.075.6-.6v3.225c1.70625-2.26 4.07375-3.62625 6.975-3.075l.975.225.975.525.6.6.6.675.375.825.225.9.15.975v10.8h2.775v.9h-9z"/><path d="m290.41307 520.33818c-.7875 3.65875-4.87125 6.175-7.95 3.3l-.375-.75-.375-.9-.15-1.05v-6.15l.15-1.05c.36875-1.44625 1.33875-3.2775 3-3.45 1.00875-.375 2.55875-.15 3.375.6l.15.225.225.3v.525l-.15.225-.375.3-.225.525c-.855 1.8225 1.77875 2.9875 2.925 1.65 3.55-5.8175-12.02375-9.17125-12.975 2.1-1.36125 10.465 11.86625 13.175 13.65 3.6z"/><path d="m391.81308 520.33818c-.57625 3.8025-5.135 6.04625-7.8 3.225l-.525-.75-.225-.825-.225-1.125-.075-1.2v-3.6l.075-1.275.225-1.05c.13625-1.64875 1.375-3.1075 2.925-3.6 1.7575-.11875 1.80125-.065 3.375.675l.225.3.15.3v.45l-.075.3-.375.3-.3.525c-.43125.5925-.0325 1.6275.6 1.95l.225.075.375.15h.375l.75-.15.3-.225.3-.15c2.3275-3.44375-3.1775-6.08-6-5.4-3.98375.31875-6.67875 3.565-7.05 7.425-1.2275 9.76625 11.22625 13.7425 13.8 3.675z"/><path d="m315.38807 520.18818c-.21875 2.15375-2.36625 4.87625-4.725 4.65-4.7225.30875-4.1975-5.6125-4.05-8.625h10.05c.50625-3.19375-2.215-6.2575-5.25-6.9-3.59875-.8775-7.17625 1.7325-8.25 5.1-1.21375 3.58125-.4825 7.98375 2.55 10.425 4.415 2.86375 9.895.75125 10.65-4.65zm-2.325-5.175v.15l-.15.15h-6.15c-.965-6.89375 7.2175-7.085 6.3-.3"/><path d="m281.93807 481.56318c8.78125-1.00625 8.48375 10.45625 0 9.375zm-3.75 21.075h-2.4v.975c4.9725-.17125 16.12 2.1525 17.325-5.7.28625-4.13625-2.47125-6.03-6.375-6.45v-.15c3.61625-.24375 5.97625-3.065 5.25-6.6l-.075-.45-.3-.6-.3-.375-.3-.45-.375-.375-.9-.75-.525-.225-.675-.225-.675-.3-1.5-.225-1.65-.075h-9v.9h2.475zm3.75-10.875c9.85125-1.48875 9.88625 12.57125 0 10.875z"/><path d="m294.68807 496.71318c.23875 9.8175 13.50375 9.8175 13.875 0-.3675-10.01625-13.765-9.79625-13.875 0zm10.275.825c.0475 2.99625-.32875 5.905-3.975 5.55-3.7825-.5875-2.65125-5.67875-2.85-8.325.0137-2.725 1.09-4.8425 4.05-4.5l.45.15.525.075.375.3.375.15.225.375.225.3c1 1.9875.455 3.77.6 5.925"/><path d="m330.31307 496.71318c.23125 9.82 13.6225 9.82125 13.875 0-.1375-9.8875-13.7575-9.89625-13.875 0zm10.425.825c.0163 2.80375-.4825 5.92625-3.975 5.55-3.91-.3975-2.69875-5.6225-2.925-8.25-.0825-2.75875.95625-4.90125 3.975-4.575l.525.15.45.075.375.3.375.15.225.375.225.3c1.04125 2.30625.6825 3.48375.75 5.925"/><path d="m354.08807 502.63818h2.025v-10.2l-.225-.6-.15-.375c-.51125-.4075-1.1-.8975-1.8-.825l-.525.15-.6.15-.525.3-.525.375-.45.375-.45.525-.375.45-.3.6v9.075h2.475v.975h-8.4v-.975h2.625v-12h-2.625v-.825h3.6l.975-.075.375-.075.375-.15.225-.15.3-.3v2.7h.075l.525-.525.525-.6.525-.375c1.3425-.995 1.96375-.915 3.45-1.2l1.125.15.975.225.75.45.52501.6.45.675.3.6.15.75v10.125h1.875v.975h-7.27501z"/><path d="m315.16307 497.98818c2.6875-.0275 3.88375 3.57 1.35 4.875-3.1 1.1075-5.41375-.8575-5.775-4.05h-.75l.15 5.1h.75l.15-.6.225-.075h.45l.3.075.675.375.975.225c1.5425.52625 4.0075.095 5.025-1.2 2.42-2.78875 1.43-7.2325-2.55-7.8-10.23125-.70125.0887-9.4525 1.95-1.5h.75l-.075-3.975h-.675l-.075.225-.075.15-.075.225c-.67625.0475-2.0325-.745-2.7-.75-1.93-.002-3.0075.11625-4.275 1.725-2.055 3.48875.175 6.8225 4.275 6.975"/><path d="m329.93807 501.43818c-.51375.865-1.67 1.6975-2.7 1.275l-.3-.075-.225-.15-.225-.3-.075-.3-.225-.375v-10.875h3.75v-.825h-3.75v-4.65h-.6c-.17125 2.57-2.3625 4.90125-5.025 4.65v.825h2.325v10.35l.075.825.15.675.375.525 1.05.75.675.15.75.15c1.74875.255 3.5525-.2875 4.5-1.875z"/></g></svg>