<svg enable-background="new 0 0 652 652" viewBox="0 0 652 652" xmlns="http://www.w3.org/2000/svg"><path d="m243.6 275.1h14.3v37.7h-14.3z" fill="#0066b5" transform="matrix(.7071 -.7071 .7071 .7071 -134.4271 263.3723)"/><path d="m215.3 302.7 62.8 62.9h20.2l-72.9-73z" fill="#0066b5"/><path d="m213.2 334.8 30.8 30.8h20.2l-40.9-40.9z" fill="#0066b5"/><g fill="#231815"><path d="m21.6 303.4h17.1c4.3 0 7.5 1.1 9.6 3.3 1.7 1.7 2.5 3.8 2.5 6.3v.1c0 1.1-.1 2-.4 2.8s-.6 1.5-1 2.2-.9 1.2-1.5 1.7-1.2.9-1.9 1.3c2.1.8 3.8 1.9 5 3.3s1.8 3.3 1.8 5.8v.1c0 1.7-.3 3.2-1 4.4-.7 1.3-1.6 2.3-2.8 3.2-1.2.8-2.7 1.5-4.4 1.9s-3.6.6-5.7.6h-17.3zm15.4 14.9c1.8 0 3.2-.3 4.3-.9s1.6-1.6 1.6-3v-.1c0-1.2-.5-2.2-1.4-2.8-.9-.7-2.2-1-4-1h-8v7.8zm2.2 14.9c1.8 0 3.2-.3 4.2-1s1.5-1.7 1.5-3v-.1c0-1.2-.5-2.2-1.4-2.9-1-.7-2.5-1.1-4.6-1.1h-9.4v8.1z"/><path d="m74.4 340.9c-5 0-8.9-1.4-11.7-4.1-2.9-2.7-4.3-6.8-4.3-12.3v-21.1h8.1v20.9c0 3 .7 5.3 2.1 6.8s3.4 2.3 5.9 2.3 4.5-.7 5.9-2.2 2.1-3.7 2.1-6.7v-21.2h8.1v20.8c0 2.8-.4 5.3-1.1 7.3-.8 2.1-1.8 3.8-3.2 5.2s-3.1 2.4-5.1 3.1c-2.1.9-4.3 1.2-6.8 1.2"/><path d="m97.4 303.4h16.9c4.7 0 8.3 1.3 10.8 3.7 2.1 2.1 3.2 4.9 3.2 8.4v.1c0 3-.7 5.4-2.2 7.3s-3.4 3.3-5.7 4.1l9 13.2h-9.5l-7.9-11.8h-.1-6.3v11.8h-8.1v-36.8zm16.4 17.9c2 0 3.5-.5 4.6-1.4 1.1-1 1.6-2.2 1.6-3.8v-.1c0-1.8-.6-3.1-1.7-4s-2.7-1.3-4.7-1.3h-8.1v10.6z"/><path d="m135.6 303.4h7.5l17.3 22.8v-22.8h8v36.9h-6.9l-17.9-23.4v23.4h-8z"/><path d="m190.4 340.9c-2.8 0-5.6-.5-8.3-1.5s-5.2-2.5-7.4-4.5l4.8-5.8c1.7 1.4 3.4 2.5 5.2 3.3s3.7 1.2 5.8 1.2c1.7 0 3-.3 3.9-.9s1.4-1.5 1.4-2.6v-.1c0-.5-.1-1-.3-1.4s-.6-.8-1.1-1.1c-.6-.4-1.3-.7-2.3-1.1s-2.2-.7-3.8-1.1c-1.9-.5-3.6-1-5.1-1.5-1.5-.6-2.8-1.3-3.9-2.1s-1.9-1.9-2.5-3.1-.9-2.8-.9-4.6c0-1.7.3-3.2.9-4.6s1.5-2.5 2.6-3.5 2.5-1.7 4.1-2.3c1.6-.5 3.3-.8 5.2-.8 2.7 0 5.2.4 7.5 1.2s4.4 2 6.3 3.5l-4.2 6.1c-1.7-1.1-3.3-2-4.9-2.7s-3.2-1-4.8-1-2.8.3-3.6.9-1.2 1.4-1.2 2.3v.1c0 .6.1 1.1.3 1.6.2.4.6.8 1.2 1.2s1.4.7 2.5 1c1 .3 2.4.7 3.9 1.1 1.9.5 3.5 1.1 5 1.7s2.7 1.4 3.7 2.2c1 .9 1.8 1.9 2.3 3 .5 1.2.8 2.6.8 4.2v.1c0 1.8-.3 3.5-1 4.9s-1.6 2.6-2.8 3.6-2.6 1.7-4.3 2.2c-1.1.6-2.9.9-5 .9"/><path d="m333.7 328.5c-1.8 0-3.6-.3-5.2-1s-3-1.6-4.1-2.8-2-2.5-2.7-4.1c-.6-1.6-1-3.2-1-5v-.1c0-1.8.3-3.4 1-5 .6-1.6 1.5-2.9 2.7-4.1 1.1-1.2 2.5-2.1 4.1-2.8s3.3-1 5.2-1c2.3 0 4.3.4 5.8 1.1s2.9 1.8 4.1 3l-4.3 4.6c-.8-.8-1.6-1.5-2.5-2-.8-.5-1.9-.7-3.2-.7-.9 0-1.7.2-2.4.5-.7.4-1.4.8-1.9 1.5-.5.6-1 1.3-1.3 2.2-.3.8-.4 1.7-.4 2.6v.1c0 1 .1 1.8.4 2.7.3.8.7 1.6 1.3 2.2s1.2 1.1 2 1.5 1.6.5 2.6.5c1.2 0 2.2-.2 3.1-.7s1.7-1.1 2.6-1.9l4.1 4.2c-1.2 1.3-2.6 2.4-4.1 3.3-1.4.8-3.4 1.2-5.9 1.2"/><path d="m350.3 303.4h14.4c2.9 0 5.5.5 7.9 1.4s4.5 2.2 6.2 3.9 3.1 3.6 4 5.8 1.4 4.7 1.4 7.3v.1c0 2.6-.5 5-1.4 7.3-1 2.3-2.3 4.2-4 5.9s-3.8 3-6.2 3.9c-2.4 1-5.1 1.4-7.9 1.4h-14.4zm14.4 29.6c1.7 0 3.2-.3 4.5-.8 1.4-.5 2.5-1.3 3.5-2.3s1.7-2.1 2.3-3.5c.5-1.3.8-2.8.8-4.5v-.1c0-1.6-.3-3.1-.8-4.5s-1.3-2.6-2.3-3.5c-1-1-2.1-1.8-3.5-2.3s-2.9-.8-4.5-.8h-6.3v22.3z"/><path d="m408.8 341c-2.9 0-5.5-.5-7.9-1.5s-4.5-2.4-6.2-4.1-3.1-3.7-4.1-6-1.5-4.8-1.5-7.4v-.1c0-2.6.5-5.1 1.5-7.4s2.3-4.3 4.1-6.1c1.7-1.7 3.8-3.1 6.2-4.1s5-1.5 7.9-1.5 5.5.5 7.9 1.5 4.5 2.4 6.2 4.1 3.1 3.7 4.1 6 1.5 4.8 1.5 7.4v.1c0 2.6-.5 5.1-1.5 7.4s-2.4 4.3-4.1 6.1c-1.7 1.7-3.8 3.1-6.2 4.1s-5 1.5-7.9 1.5m.1-7.5c1.6 0 3.1-.3 4.5-.9s2.5-1.4 3.5-2.5 1.7-2.3 2.3-3.7c.5-1.4.8-2.9.8-4.5v-.1c0-1.6-.3-3.1-.8-4.5s-1.3-2.6-2.3-3.7-2.2-1.9-3.6-2.5-2.9-.9-4.5-.9c-1.7 0-3.2.3-4.5.9-1.4.6-2.5 1.4-3.5 2.5s-1.7 2.3-2.3 3.7c-.5 1.4-.8 2.9-.8 4.5v.1c0 1.6.3 3.1.8 4.5s1.3 2.6 2.3 3.7 2.2 1.9 3.5 2.5c1.5.6 3 .9 4.6.9"/><path d="m434.2 303.4h7.5l17.3 22.7v-22.7h8.1v36.9h-7l-17.8-23.4v23.4h-8.1z"/><path d="m475.2 303.4h7.5l17.3 22.7v-22.7h8v36.9h-6.9l-17.9-23.4v23.4h-8z"/><path d="m515.4 303.4h27.8v7.2h-19.8v7.5h17.4v7.3h-17.4v7.7h20.1v7.2h-28.1z"/><path d="m550.8 303.4h8.1v29.6h18.4v7.3h-26.5z"/><path d="m583.4 303.4h8.1v29.6h18.5v7.3h-26.6z"/></g><path d="m322.4 332.6h20.7v7.7h-20.7z" fill="#0066b5"/><path d="m306.4 303.4-9.7 15.6-9.7-15.6h-8.7v10.2 18l8 8v-20.2-3l5.9 8.9 4.4 6.7h.2l.8-1.2 9.6-14.6v24.1h8v-36.9z" fill="#231815"/><path d="m614.3 336.7c0-2 1.6-3.7 3.6-3.7 2.1 0 3.6 1.7 3.6 3.6 0 2-1.6 3.7-3.6 3.7s-3.6-1.6-3.6-3.6m6.9 0c0-1.8-1.4-3.3-3.2-3.3s-3.2 1.5-3.2 3.3c0 1.8 1.4 3.2 3.2 3.2s3.2-1.4 3.2-3.2m-4.6-2h1.7c.8 0 1.4.4 1.4 1.2 0 .6-.4 1-.9 1.1l1 1.4h-.9l-.9-1.3h-.8v1.3h-.7v-3.7zm1.6 1.9c.5 0 .8-.3.8-.6 0-.4-.3-.6-.8-.6h-.9v1.2z" fill="#231815"/></svg>