<?xml version="1.0" encoding="utf-8"?>
<!-- Generator: Adobe Illustrator 19.2.1, SVG Export Plug-In . SVG Version: 6.00 Build 0)  -->
<svg version="1.1" id="layer" xmlns="http://www.w3.org/2000/svg" xmlns:xlink="http://www.w3.org/1999/xlink" x="0px" y="0px"
	 viewBox="0 0 652 652" style="enable-background:new 0 0 652 652;" xml:space="preserve">
<style type="text/css">
	.st0{fill:#0066B5;}
	.st1{fill:#231815;}
</style>
<rect x="243.6" y="275.1" transform="matrix(0.7071 -0.7071 0.7071 0.7071 -134.4271 263.3723)" class="st0" width="14.3" height="37.7"/>
<polygon class="st0" points="215.3,302.7 278.1,365.6 298.3,365.6 298.3,365.6 225.4,292.6 "/>
<polygon class="st0" points="213.2,334.8 244,365.6 264.2,365.6 223.3,324.7 "/>
<g>
	<path class="st1" d="M21.6,303.4h17.1c4.3,0,7.5,1.1,9.6,3.3c1.7,1.7,2.5,3.8,2.5,6.3v0.1c0,1.1-0.1,2-0.4,2.8
		c-0.3,0.8-0.6,1.5-1,2.2c-0.4,0.7-0.9,1.2-1.5,1.7c-0.6,0.5-1.2,0.9-1.9,1.3c2.1,0.8,3.8,1.9,5,3.3c1.2,1.4,1.8,3.3,1.8,5.8v0.1
		c0,1.7-0.3,3.2-1,4.4c-0.7,1.3-1.6,2.3-2.8,3.2c-1.2,0.8-2.7,1.5-4.4,1.9c-1.7,0.4-3.6,0.6-5.7,0.6H21.6V303.4z M37,318.3
		c1.8,0,3.2-0.3,4.3-0.9c1.1-0.6,1.6-1.6,1.6-3v-0.1c0-1.2-0.5-2.2-1.4-2.8c-0.9-0.7-2.2-1-4-1h-8v7.8H37z M39.2,333.2
		c1.8,0,3.2-0.3,4.2-1c1-0.7,1.5-1.7,1.5-3v-0.1c0-1.2-0.5-2.2-1.4-2.9c-1-0.7-2.5-1.1-4.6-1.1h-9.4v8.1H39.2z"/>
</g>
<g>
	<path class="st1" d="M74.4,340.9c-5,0-8.9-1.4-11.7-4.1c-2.9-2.7-4.3-6.8-4.3-12.3v-21.1h8.1v20.9c0,3,0.7,5.3,2.1,6.8
		c1.4,1.5,3.4,2.3,5.9,2.3c2.5,0,4.5-0.7,5.9-2.2c1.4-1.5,2.1-3.7,2.1-6.7v-21.2h8.1v20.8c0,2.8-0.4,5.3-1.1,7.3
		c-0.8,2.1-1.8,3.8-3.2,5.2c-1.4,1.4-3.1,2.4-5.1,3.1C79.1,340.6,76.9,340.9,74.4,340.9"/>
	<path class="st1" d="M97.4,303.4h16.9c4.7,0,8.3,1.3,10.8,3.7c2.1,2.1,3.2,4.9,3.2,8.4v0.1c0,3-0.7,5.4-2.2,7.3
		c-1.5,1.9-3.4,3.3-5.7,4.1l9,13.2h-9.5l-7.9-11.8h-0.1h-6.3v11.8h-8.1V303.4z M113.8,321.3c2,0,3.5-0.5,4.6-1.4
		c1.1-1,1.6-2.2,1.6-3.8V316c0-1.8-0.6-3.1-1.7-4c-1.1-0.9-2.7-1.3-4.7-1.3h-8.1v10.6H113.8z"/>
	<polygon class="st1" points="135.6,303.4 143.1,303.4 160.4,326.2 160.4,303.4 168.4,303.4 168.4,340.3 161.5,340.3 143.6,316.9 
		143.6,340.3 135.6,340.3 	"/>
	<path class="st1" d="M190.4,340.9c-2.8,0-5.6-0.5-8.3-1.5c-2.7-1-5.2-2.5-7.4-4.5l4.8-5.8c1.7,1.4,3.4,2.5,5.2,3.3
		c1.8,0.8,3.7,1.2,5.8,1.2c1.7,0,3-0.3,3.9-0.9c0.9-0.6,1.4-1.5,1.4-2.6v-0.1c0-0.5-0.1-1-0.3-1.4c-0.2-0.4-0.6-0.8-1.1-1.1
		c-0.6-0.4-1.3-0.7-2.3-1.1c-1-0.4-2.2-0.7-3.8-1.1c-1.9-0.5-3.6-1-5.1-1.5c-1.5-0.6-2.8-1.3-3.9-2.1c-1.1-0.8-1.9-1.9-2.5-3.1
		c-0.6-1.2-0.9-2.8-0.9-4.6V314c0-1.7,0.3-3.2,0.9-4.6c0.6-1.4,1.5-2.5,2.6-3.5s2.5-1.7,4.1-2.3c1.6-0.5,3.3-0.8,5.2-0.8
		c2.7,0,5.2,0.4,7.5,1.2c2.3,0.8,4.4,2,6.3,3.5l-4.2,6.1c-1.7-1.1-3.3-2-4.9-2.7c-1.6-0.7-3.2-1-4.8-1s-2.8,0.3-3.6,0.9
		c-0.8,0.6-1.2,1.4-1.2,2.3v0.1c0,0.6,0.1,1.1,0.3,1.6c0.2,0.4,0.6,0.8,1.2,1.2c0.6,0.4,1.4,0.7,2.5,1c1,0.3,2.4,0.7,3.9,1.1
		c1.9,0.5,3.5,1.1,5,1.7c1.5,0.6,2.7,1.4,3.7,2.2c1,0.9,1.8,1.9,2.3,3c0.5,1.2,0.8,2.6,0.8,4.2v0.1c0,1.8-0.3,3.5-1,4.9
		c-0.7,1.4-1.6,2.6-2.8,3.6c-1.2,1-2.6,1.7-4.3,2.2C194.3,340.6,192.5,340.9,190.4,340.9"/>
	<path class="st1" d="M333.7,328.5c-1.8,0-3.6-0.3-5.2-1c-1.6-0.7-3-1.6-4.1-2.8c-1.1-1.2-2-2.5-2.7-4.1c-0.6-1.6-1-3.2-1-5v-0.1
		c0-1.8,0.3-3.4,1-5c0.6-1.6,1.5-2.9,2.7-4.1c1.1-1.2,2.5-2.1,4.1-2.8c1.6-0.7,3.3-1,5.2-1c2.3,0,4.3,0.4,5.8,1.1
		c1.5,0.7,2.9,1.8,4.1,3l-4.3,4.6c-0.8-0.8-1.6-1.5-2.5-2c-0.8-0.5-1.9-0.7-3.2-0.7c-0.9,0-1.7,0.2-2.4,0.5
		c-0.7,0.4-1.4,0.8-1.9,1.5c-0.5,0.6-1,1.3-1.3,2.2c-0.3,0.8-0.4,1.7-0.4,2.6v0.1c0,1,0.1,1.8,0.4,2.7c0.3,0.8,0.7,1.6,1.3,2.2
		c0.6,0.6,1.2,1.1,2,1.5c0.8,0.4,1.6,0.5,2.6,0.5c1.2,0,2.2-0.2,3.1-0.7c0.9-0.5,1.7-1.1,2.6-1.9l4.1,4.2c-1.2,1.3-2.6,2.4-4.1,3.3
		C338.2,328.1,336.2,328.5,333.7,328.5"/>
	<path class="st1" d="M350.3,303.4h14.4c2.9,0,5.5,0.5,7.9,1.4c2.4,0.9,4.5,2.2,6.2,3.9c1.7,1.7,3.1,3.6,4,5.8
		c0.9,2.2,1.4,4.7,1.4,7.3v0.1c0,2.6-0.5,5-1.4,7.3c-1,2.3-2.3,4.2-4,5.9c-1.7,1.7-3.8,3-6.2,3.9c-2.4,1-5.1,1.4-7.9,1.4h-14.4
		V303.4z M364.7,333c1.7,0,3.2-0.3,4.5-0.8c1.4-0.5,2.5-1.3,3.5-2.3c1-1,1.7-2.1,2.3-3.5c0.5-1.3,0.8-2.8,0.8-4.5v-0.1
		c0-1.6-0.3-3.1-0.8-4.5c-0.5-1.4-1.3-2.6-2.3-3.5c-1-1-2.1-1.8-3.5-2.3c-1.4-0.5-2.9-0.8-4.5-0.8h-6.3V333H364.7z"/>
	<path class="st1" d="M408.8,341c-2.9,0-5.5-0.5-7.9-1.5c-2.4-1-4.5-2.4-6.2-4.1c-1.7-1.7-3.1-3.7-4.1-6c-1-2.3-1.5-4.8-1.5-7.4
		v-0.1c0-2.6,0.5-5.1,1.5-7.4c1-2.3,2.3-4.3,4.1-6.1c1.7-1.7,3.8-3.1,6.2-4.1c2.4-1,5-1.5,7.9-1.5c2.9,0,5.5,0.5,7.9,1.5
		c2.4,1,4.5,2.4,6.2,4.1c1.7,1.7,3.1,3.7,4.1,6c1,2.3,1.5,4.8,1.5,7.4v0.1c0,2.6-0.5,5.1-1.5,7.4c-1,2.3-2.4,4.3-4.1,6.1
		c-1.7,1.7-3.8,3.1-6.2,4.1C414.3,340.5,411.7,341,408.8,341 M408.9,333.5c1.6,0,3.1-0.3,4.5-0.9c1.4-0.6,2.5-1.4,3.5-2.5
		c1-1.1,1.7-2.3,2.3-3.7c0.5-1.4,0.8-2.9,0.8-4.5v-0.1c0-1.6-0.3-3.1-0.8-4.5c-0.5-1.4-1.3-2.6-2.3-3.7c-1-1.1-2.2-1.9-3.6-2.5
		c-1.4-0.6-2.9-0.9-4.5-0.9c-1.7,0-3.2,0.3-4.5,0.9c-1.4,0.6-2.5,1.4-3.5,2.5c-1,1.1-1.7,2.3-2.3,3.7c-0.5,1.4-0.8,2.9-0.8,4.5v0.1
		c0,1.6,0.3,3.1,0.8,4.5c0.5,1.4,1.3,2.6,2.3,3.7c1,1.1,2.2,1.9,3.5,2.5C405.8,333.2,407.3,333.5,408.9,333.5"/>
	<polygon class="st1" points="434.2,303.4 441.7,303.4 459,326.1 459,303.4 467.1,303.4 467.1,340.3 460.1,340.3 442.3,316.9 
		442.3,340.3 434.2,340.3 	"/>
	<polygon class="st1" points="475.2,303.4 482.7,303.4 500,326.1 500,303.4 508,303.4 508,340.3 501.1,340.3 483.2,316.9 
		483.2,340.3 475.2,340.3 	"/>
	<polygon class="st1" points="515.4,303.4 543.2,303.4 543.2,310.6 523.4,310.6 523.4,318.1 540.8,318.1 540.8,325.4 523.4,325.4 
		523.4,333.1 543.5,333.1 543.5,340.3 515.4,340.3 	"/>
	<polygon class="st1" points="550.8,303.4 558.9,303.4 558.9,333 577.3,333 577.3,340.3 550.8,340.3 	"/>
	<polygon class="st1" points="583.4,303.4 591.5,303.4 591.5,333 610,333 610,340.3 583.4,340.3 	"/>
	<rect x="322.4" y="332.6" class="st0" width="20.7" height="7.7"/>
</g>
<g>
	<polygon class="st1" points="306.4,303.4 296.7,319 287,303.4 278.3,303.4 278.3,313.6 278.3,331.6 286.3,339.6 286.3,319.4 
		286.3,316.4 292.2,325.3 296.6,332 296.8,332 297.6,330.8 307.2,316.2 307.2,340.3 315.2,340.3 315.2,303.4 	"/>
	<path class="st1" d="M614.3,336.7L614.3,336.7c0-2,1.6-3.7,3.6-3.7c2.1,0,3.6,1.7,3.6,3.6v0c0,2-1.6,3.7-3.6,3.7
		C615.9,340.3,614.3,338.7,614.3,336.7 M621.2,336.7L621.2,336.7c0-1.8-1.4-3.3-3.2-3.3c-1.8,0-3.2,1.5-3.2,3.3v0
		c0,1.8,1.4,3.2,3.2,3.2C619.8,339.9,621.2,338.5,621.2,336.7 M616.6,334.7h1.7c0.8,0,1.4,0.4,1.4,1.2c0,0.6-0.4,1-0.9,1.1l1,1.4
		h-0.9l-0.9-1.3h-0.8v1.3h-0.7V334.7z M618.2,336.6c0.5,0,0.8-0.3,0.8-0.6c0-0.4-0.3-0.6-0.8-0.6h-0.9v1.2H618.2z"/>
</g>
</svg>
