<svg height="96.914589mm" viewBox="0 0 247.82915 96.914589" width="247.82915mm" xmlns="http://www.w3.org/2000/svg"><path d="m41.24081 179.05316c-.09005-.14571-.04364-.89124.103156-1.65674.432927-2.25768 2.091312-10.10636 2.802464-13.26328.362143-1.60762.564581-3.0168.449866-3.13151-.114718-.11472-15.800256-.23879-34.8567541-.27571l-34.6481749-.0671.0136-1.32291c.0075-.72761.631569-4.29948 1.386865-7.9375 2.881788-13.88066 3.517978-16.96972 3.732612-18.12396.121771-.65485.831056-4.16719 1.57619-7.80521 2.133817-10.41809 5.009733-24.50041 5.886623-28.824658.440976-2.174602.916879-4.168899 1.057564-4.43177.244675-.457181 1.7779892-.477948 35.288158-.477948 24.316974 0 35.085206.08549 35.205115.279513.09501.153732-.0104 1.076467-.234225 2.050521-.223835.974054-.843206 3.854601-1.376381 6.401212-.533175 2.54662-1.080008 5.07606-1.215184 5.62098l-.245776.99077-23.58221.0676-23.5822122.0676-.1947069.66146c-.1070874.3638-.449236 2.09021-.7603278 3.83646s-.7423388 3.98529-.9583235 4.97566c-.2159847.99036-.3232097 1.9131-.2382785 2.05052.094726.15327 8.0688979.24986 20.6283989.24986 12.085368 0 20.535239.0991 20.623496.24192.08223.13306-.264097 2.18689-.769623 4.56406-.505526 2.37718-1.11302 5.27464-1.349986 6.43881s-.535901 2.38456-.6643 2.71198l-.23345.59531h-20.648846c-10.455928.15392 0 0-20.7386019.10895l-2.1984385 11.98859c23.3691234.009 15.2898614.031 23.3691234.009l23.201747-.0676.33278-1.5875c.183031-.87312.708549-3.3139 1.16782-5.42396.459272-2.11005 1.232326-5.74145 1.717895-8.06979 1.112822-5.33603 2.950615-14.01608 3.445179-16.27187.207378-.94589.642972-2.94018.967989-4.43177l.590939-2.71198 9.802514.004c5.391383.002 9.949106.0972 10.128271.21098.251315.15964.167674.91655-.365988 3.31208-.38046 1.70783-.622085 3.17481-.53694 3.25995.08514.0851.441426-.0677.791742-.33956 2.753156-2.13693 3.971433-2.95961 5.841177-3.94444 5.919137-3.11771 13.124641-4.33609 20.456243-3.45894 7.31537.87521 11.55949 2.68726 15.56232 6.64442 2.85026 2.81773 4.66655 6.4352 5.29786 10.55165.0866.56466.25203.92184.36763.79375.19274-.21356.75962-2.59919 1.75286-7.37665 1.36859-6.58288 2.02343-9.26364 2.30686-9.44372.44462-.28249 19.81482-.26107 20.26222.0224.29455.18663.3033.48522.0483 1.64959-.17124.78195-.54707 2.49328-.83518 3.80297-.2881 1.30968-.92268 4.28625-1.41017 6.61458-.48748 2.32833-.97102 4.56076-1.07451 4.96094-.33229 1.28479.31303.79872 1.31261-.98868 2.08707-3.73203 6.19096-8.07171 10.11238-10.69339 8.47607-5.66671 20.96029-8.36198 34.52773-7.45433 7.61353.50934 11.66123 1.40873 16.27401 3.61606 4.78196 2.28828 7.58826 5.31448 9.16788 9.88626.6481 1.87577.78594 2.71109.8096 4.90647l.0285 2.64584h-10.69358-10.69358l-.52444-1.57333c-1.11437-3.34313-4.20307-5.23538-9.26279-5.67472-6.89706-.59888-12.11234.97547-16.3653 4.94023-4.82349 4.49664-7.20114 13.95394-4.80414 19.10886 1.89192 4.0687 5.90695 6.08542 12.11528 6.08542 6.89511 0 12.12172-2.52416 15.33919-7.40798l1.22039-1.85244h10.8423c9.83705 0 10.84229.0399 10.84229.43045 0 .23675-.49709 1.33807-1.10464 2.44739-6.52912 11.92136-15.97151 17.86543-31.39464 19.76324-4.37749.53865-15.96215.40032-19.76356-.23598-4.77933-.8-7.84239-1.76532-11.36945-3.58307-3.2901-1.69564-6.75877-5.10161-8.12087-7.97411-.9772-2.06078-1.62921-4.23755-1.93141-6.44807-.20993-1.53558-.54978-1.34795-.91331.50424-.1418.72249-.67458 3.27815-1.18395 5.67924-.50937 2.4011-1.11514 5.2586-1.34614 6.35-.23101 1.09141-.53802 2.43086-.68226 2.97657l-.26225.99218h-10.18456c-8.46436 0-10.20847-.0623-10.32609-.3688-.13303-.34668.4799-3.65044 1.7478-9.42078.30376-1.38245.6723-3.16838.81898-3.96875.14668-.80036.3276-1.66357.40206-1.91823.22445-.76773-.28164-.52112-.81449.39688-1.80188 3.10433-5.66768 7.33615-8.95746 9.80555-6.85396 5.14479-14.542548 7.58521-23.909414 7.58905-7.943507.003-13.295662-1.66689-17.212342-5.37112-.76998-.72822-1.478437-1.24556-1.574348-1.14965-.09591.0959-.332346.91811-.525412 1.8271-.193067.90899-.763339 3.61724-1.267267 6.01834-.503931 2.40109-1.162598 5.49672-1.463704 6.87916-.301104 1.38245-.738651 3.40651-.97232 4.49792-.233672 1.09141-.502963 2.34156-.598424 2.77813l-.173564.79375-10.224291.0692c-6.615108.0448-10.28209-.0243-10.388024-.19569zm48.338839-31.99413c5.976482-1.72416 9.609791-5.46398 11.438231-11.77355.89824-3.09963.9404-6.57785.10676-8.80597-.7854-2.09914-2.713385-3.99178-4.993275-4.90171-3.425786-1.36726-9.252115-1.49826-13.089997-.29431-7.20031 2.25875-11.752638 8.48681-11.858929 16.22425-.03472 2.52737.02839 2.92142.699188 4.36563 1.488797 3.20535 4.140438 5.04056 8.249325 5.70939 2.141349.34856 7.443872.0546 9.448697-.52373zm39.464231-47.298425c.17994-1.312828 1.92575-9.548915 2.26206-10.671614l.19815-.661459 10.14805-.06934c5.58143-.03813 10.25133.03394 10.37756.160167.2195.219503-.14839 2.336307-1.38672 7.978962-.30339 1.382448-.6413 2.93026-.7509 3.439583l-.19928.926046-10.4095.0692-10.4095.0693z" fill="#ba0239" stroke-width=".264583" transform="translate(27.908633 -85.347986)"/></svg>