<svg xmlns="http://www.w3.org/2000/svg" height="800" width="1200" overflow="visible" viewBox="-37.5 -11.79 325 70.74"><path d="M97.91 9.12h6.911v2.361c.742-.646 3.138-2.94 7.563-2.94 5.207 0 9.344 3.844 9.344 9.88v15.668h-7.3V20.363c0-3.365-1.641-5.361-4.611-5.361-2.877 0-4.608 1.882-4.608 5.361v13.726H97.91V9.12m69.532 12.484c0-7.203 5.768-13.063 13.322-13.063 7.552 0 13.318 5.86 13.318 13.063 0 7.201-5.767 13.054-13.318 13.054-7.554 0-13.322-5.853-13.322-13.054m7.206 0c0 3.449 2.577 6.287 6.159 6.287 3.588 0 6.169-2.838 6.169-6.287 0-3.451-2.581-6.287-6.169-6.287-3.581 0-6.159 2.836-6.159 6.287m-107.46.005c0-7.206 5.771-13.066 13.318-13.066 7.556 0 13.325 5.86 13.325 13.066 0 7.199-5.769 13.05-13.325 13.05-7.548.001-13.318-5.851-13.318-13.05m7.206-.002c0 3.451 2.577 6.289 6.163 6.289 3.588 0 6.165-2.838 6.165-6.289 0-3.454-2.577-6.287-6.165-6.287-3.586 0-6.163 2.833-6.163 6.287M229.493 6.354h7.399V0h-7.399zm0 27.735h7.399V9.12h-7.399zm13.105 0H250V0h-7.402zm-37.22 0h-7.017V0h7.097v11.102c.352-.259 2.651-2.561 7.674-2.561 6.57 0 12.053 5.642 12.053 13.068 0 7.412-5.84 13.054-12.137 13.054-4.79 0-7.074-2.104-7.59-2.496l-.08 1.922m12.308-12.499c0-3.511-2.662-6.235-6.227-6.235-3.544 0-6.265 2.699-6.265 6.255 0 3.511 2.684 6.235 6.257 6.235 3.538-.001 6.235-2.734 6.235-6.255M24.15 34.089h8.559l7.694-9.888L45.2 29.06 34.223 42.804h8.589l7.029-9.109 13.23 13.465H73.44L54.425 28.039 69.4 9.12h-8.594L49.739 23.33l-4.789-4.814L57.261 3.012H48.69L40.282 13.83l-4.566-4.71H25.49l10.3 10.399-11.64 14.57M0 0v34.089h22.451v-6.361H7.638v-8.145h14.148v-6.166H7.638V6.351h14.813V0H0m127.575 0v34.089h7.183V8.35h.326l6.18 25.74h8.069l6.325-25.74h.327v25.74h7.182V0h-11.729l-5.84 24.879h-.26L139.643 0h-12.068" fill="#ED1B2D"/></svg>