<svg height="800" viewBox="-101.68185 -30.01875 881.2427 180.1125" width="1200" xmlns="http://www.w3.org/2000/svg"><g fill="#de1e34" fill-rule="evenodd"><path d="m640.01 0h-25.752v91.65h25.753z"/><path d="m652.13 91.65v-91.65h25.749v91.65z"/><path d="m34.082 0h-34.082v91.65h34.082v-45.446h20.828v45.446h34.085v-91.65h-34.085v35.597h-20.828z"/><path d="m214.914 34.082-2.084-6.058h-28.025v63.626h28.025v-38.25c0-8.334 5.304-12.877 9.847-12.877 3.786 0 8.708.757 8.708 9.09v42.037h28.025v-41.28c0-23.102-25.937-32.19-44.496-16.288z"/><path d="m502.73 64.948-13.064-36.924h-19.125l-13.067 38.439-13.634-38.439h-37.49l-13.447 32.377-18.934-32.377h-32.002l37.681 64.382-4.921 12.115c-1.707 3.79-5.787 3.978-6.585.38 0-6.507-5.277-11.78-11.784-11.78s-11.783 5.273-11.783 11.78c.046 6.818 6.861 15.717 20.304 15.148 13.446-.567 19.125-11.737 21.018-16.472l31.142-75.305 22.447 63.377h20.45l12.497-36.548 12.877 36.548h19.312l21.775-63.625h-11.17z"/><path d="m137.277 24.79c-21.443 0-38.823 15.944-38.823 35.611 0 19.674 17.38 35.619 38.823 35.619 21.447 0 38.83-15.945 38.83-35.619 0-19.667-17.383-35.611-38.83-35.611zm9.66 52.273a9.66 9.66 0 0 1 -9.66 9.66c-5.329 0-9.653-4.324-9.653-9.66v-33.32c0-5.333 4.324-9.653 9.653-9.653 5.336 0 9.66 4.32 9.66 9.652z"/><path d="m345.08 65.515c.204-1.49.31-3.57.31-5.114 0-19.667-17.384-35.611-38.827-35.611-21.447 0-38.831 15.944-38.831 35.611 0 19.674 17.384 35.619 38.831 35.619 14.734 0 27.55-7.53 34.131-18.624l-8.577-3.173c-5.183 7.922-14.688 13.226-25.554 13.226-5.336 0-9.66-5.05-9.66-10.386v-11.545l48.176-.003zm-48.177-21.773c0-5.332 4.324-9.652 9.66-9.652 5.332 0 9.656 4.32 9.656 9.652v12.686h-19.316z"/><path d="m604.488 65.515c.21-1.49.315-3.57.315-5.114 0-19.667-17.384-35.611-38.83-35.611-21.444 0-38.827 15.944-38.827 35.611 0 19.674 17.383 35.619 38.827 35.619 14.737 0 27.553-7.53 34.134-18.624l-8.577-3.173c-5.183 7.922-14.687 13.226-25.557 13.226-5.333 0-9.657-5.05-9.657-10.386v-11.545zm-48.172-21.773c0-5.332 4.324-9.652 9.657-9.652 5.336 0 9.66 4.32 9.66 9.652v12.686h-19.317z"/></g></svg>