<svg xmlns="http://www.w3.org/2000/svg" height="800" width="1200" viewBox="-14.773965 -19.070225 128.04103 114.42135"><path style="line-height:normal;-inkscape-font-specification:'Andale Mono';text-indent:0;text-align:start;text-decoration-line:none;text-transform:none;marker:none" d="M26.3618 0c-4.3724.1875-8.5216 3.0257-10.0937 7.1875v.0312c-.005.0135-.0262.0177-.0312.0312L.768 42.7499l-.0312.0312-.0312.0625c-.636 1.797-.914 3.9221-.5312 6.0312v.0625l.0312.0625 2.1562 7.8438 2.7813 10.25.0312.0312v.0312l.75 2.1562v.0624c1.5422 3.9373 5.4947 6.6445 9.5937 6.9063h67.8125c4.2454-.3213 8.146-3.3977 9.5625-7.4375v-.0312l.0312-.0625 5.3125-19.6875.0312-.0625v-.0625c.304-1.7936.3705-3.873-.25-5.75l-.0312-.0625-.0312-.0622-7.1563-16.0938L81.768 6.8125c-.006-.0134-.0255-.0178-.0312-.0312C80.2012 3.1938 76.7676.8065 73.018.2188V0H26.362z" color="#000" font-weight="400" font-family="Andale Mono" overflow="visible" fill="#fff"/><path d="M70.7335 2.8277c3.5663.1075 7.0838 2.3713 8.5013 5.7175l8.7012 19.4263 6.8963 15.4662c.4862 1.4688.4575 3.2863.1937 4.8525l-5.12 18.9188c-1.1612 3.3112-4.5587 5.9775-8.0037 6.2387l-64.9938-.008c-3.3687-.2125-6.7675-2.545-8.0262-5.7587l-.7125-2.075-2.6863-9.8363-2.0787-7.5637c-.3163-1.7363-.065-3.5538.4775-5.0838l14.92-34.2087c1.28-3.4575 4.8412-5.93 8.4837-6.0863h43.4475" fill="#005daa"/><path d="M71.0198 6.259c2.3425.1812 4.6312 2.135 5.305 4.3687l13.7 30.4025c.8362 1.7225 2.2762 3.8013 1.7125 6.1213l-.7663 3.1387-4.1337 15.2775c-.5338 2.2538-2.8513 4.0713-5.0463 4.4425l-64.105.0137c-2.04-.0387-3.8762-.8162-5.1112-2.5587-1.2388-2.03-5.9163-20.2213-5.9163-20.2213-.2237-1.7762.4888-3.3312 1.1638-4.8112l11.5662-26.4225 2.8375-6.4288c1.1688-2.1 3.385-3.1937 5.6225-3.3287l43.1713.006" fill="#fff"/><path d="M49.1123 33.6627l8.0287-20.7012 12.1975-.006L80.161 48.238l-14.9312-.002-1.6625-19.3713-9.6825 19.3713-9.4463.0113-9.7925-19.22-1.6025 19.2087-14.9087.007 10.4925-35.2675 12.2225-.006 8.2625 20.6938" fill="#ed174f"/><path d="M20.4898 57.704l1.0575-5.0825 3.0925.002 1.2387 9.8575-2.395.004-.7425-6.375c-.3925 2.0937-.6937 4.2675-1.0337 6.375l-2.4875.007-1.0575-6.3513c-.2988 2.0938-.4963 4.245-.7463 6.3513l-2.4325.003 1.3513-9.8788 3.0937.003 1.0613 5.085m8.1015-5.0677l-2.0625 9.8437h2.4375l.3437-1.7187h2.3125l.2813 1.7187h2.5312l-2.1562-9.8437zm1.875 2.0312c.3275 1.34.505 2.8125.75 4.2188H29.685zm7.2812-2.125c-1.116.002-2.0625.0937-2.0625.0937v9.8438h2.3438v-3.5c.1712-.0942.485-.0925.6562 0 .007.0213 1.1875 3.5 1.1875 3.5H42.31l-1.375-3.625-.0312-.25c.815-.2563 1.0975-1.1488 1.25-1.875.0837-1.3313.145-3.1-1.2812-3.8125-.73-.3025-2.0091-.377-3.125-.375zm.875 2.0938c.2911.009.6344.0569.8125.1875.4125.4562.425 1.2287.2188 1.7812-.1425.1975-.2038.415-.5625.4688h-1v-2.4063s.2401-.0402.5312-.0312zm31.1563-2.2188c-.7062.0471-1.3779.2285-1.9375.5313-1.1038.68-1.3725 1.91-1.4688 3.0937.0537 2-.3625 4.3925 1.0938 5.8438 1.285.9375 2.8512.8925 4.375.5 1.4587-.4338 1.9487-1.9575 2.0312-3.3125.0637-1.8963.2775-4.0913-.8125-5.625-.846-.807-2.1043-1.1098-3.2812-1.0313zm.3125 2.0625c.3521-.0155.73.0656.9687.2813.6738 1.1787.3638 3.2475.3125 4.8125-.0775.3837-.1637.7987-.5312 1-.445.2-1.1338.2-1.5313-.125-.37-.4913-.305-.6075-.4062-1.2188-.205-1.2675-.3825-3.2075.2812-4.375.2213-.2312.554-.3595.9063-.375zm-13.0565.24h-2.1275l-.0112 7.7613-2.3588-.002-.002-7.7738h-2.1212l.003-2.1075h6.6187v2.1225m3.3015 1.8195l2.12.0163.0125-3.95 2.41-.009v9.8838l-2.41.0138v-3.8475l-2.1275.001-.0163 3.83-2.4263.002.007-9.8838 2.4163-.003.0138 3.945m20.0192 2.3927l.003-6.3338h2.205v9.9025h-3.24l-1.7212-5.9437v5.9437h-2.1263v-9.9025h3.24l1.64 6.3338m-35.3902-6.295l-2.0313 9.8437h2.4063l.3437-1.7187h2.3125l.2813 1.7187H50.81l-2.1562-9.8437zm1.875 2.0312c.325 1.34.5037 2.8125.75 4.2188H46.06z" fill="#005daa"/><path style="line-height:normal;-inkscape-font-specification:'Andale Mono';text-indent:0;text-align:start;text-decoration-line:none;text-transform:none;marker:none" d="M93.3967 68.379c-1.3893 0-2.5625 1.078-2.5625 2.5312 0 1.4643 1.1731 2.5313 2.5625 2.5313 1.3796 0 2.5625-1.067 2.5625-2.5313 0-1.4532-1.183-2.5312-2.5625-2.5312zm0 .4999c1.0962 0 1.9688.8814 1.9688 2.0312 0 .6233-.262 1.1063-.6563 1.4688-.346.3181-.8.5312-1.3125.5312-1.1066 0-1.9687-.8297-1.9687-2 0-1.1498.8623-2.0312 1.9687-2.0312zm1.3125 3.5l-.0312-.0625-.7812-1.2188c.1761-.0347.3485-.1044.4687-.2187.1431-.136.25-.3265.25-.5938 0-.2917-.1001-.5125-.2812-.6562-.1812-.1436-.437-.2187-.7813-.2187h-1.1563v2.9687h.5312v-1.2187h.4375l.7188 1.1875.0312.0312h.5936zm-1.7813-2.5h.5625c.147 0 .2697.0394.375.0936.1053.0542.1875.1182.1875.2813 0 .2062-.0742.2895-.1875.3437-.1133.0542-.2868.0937-.4687.0937h-.4688v-.8125z" color="#000" font-weight="400" font-family="Andale Mono" overflow="visible" fill="#005daa"/></svg>