<svg height="467.00787" width="956.69287" xmlns="http://www.w3.org/2000/svg"><g fill="#c92a28" transform="translate(-573.990159 1834.150787)"><path d="m1495.25-1674.9702-233.3551 88.6362 13.5695-29.2607-316.24258 108.0706 17.51333-36.2298-367.2284 141.1427 275.73463-69.2177-22.59352 43.4998 341.84414-127.3071-19.5354 37.9183z"/><path d="m1443.0943-1782.3055c1.6544 0 3.2086-.1337 3.2086-2.139 0-1.6217-1.504-1.9051-2.8743-1.9051h-2.6738v4.0441zm-2.3395 7.3195h-2.0054v-13.0347h4.9967c3.0581 0 4.5788 1.1363 4.5788 3.6938 0 2.3383-1.4371 3.3744-3.3756 3.5923l3.6932 5.7486h-2.1892l-3.4592-5.6484h-2.2393zm2.3897 2.9078c5.1136 0 9.1744-4.0107 9.1744-9.4586 0-5.3476-4.0608-9.3917-9.1744-9.3917-5.1805 0-9.2246 4.0441-9.2246 9.3917 0 5.4479 4.0441 9.4586 9.2246 9.4586m-11.514-9.4586c0-6.4839 5.264-11.2807 11.514-11.2807 6.1664 0 11.4304 4.7968 11.4304 11.2807 0 6.5508-5.264 11.3636-11.4304 11.3636-6.25 0-11.514-4.8128-11.514-11.3636"/><path d="m815.43874-1744.7561-40.45779 34.1577s-16.09287-18.0815-17.34621-19.4853c-1.40374 1.2032-34.50861 29.278-34.50861 29.278l4.71255-46.6082-118.41549 99.7832 80.86545-38.8207-20.77201 174.3311s24.76598 18.3155 26.82146 19.7032c2.0889-16.6283 22.07548-176.3205 23.16171-185.009l.06684-.3516 23.41238-19.7526 4.97994 4.9131-18.83351 159.0237s25.16705 18.7834 26.77132 19.8689c.18383-1.5708 17.04542-145.6881 21.0561-180.0624l23.26198-19.6858 4.94651 4.8957-18.18177 155.0639 26.77132 19.7352 21.89166-188.7188z"/><path d="m881.16385-1709.8792-27.94111 4.746-3.45921 27.3729 27.90769-5.2807zm150.18345 11.4813-11.2299 86.9302-6.1999 6.6524-10.5113-8.7245 10.4445-81.7512-27.95782 6.8021-10.762 85.06-8.25533 10.996-8.82351-7.8035 10.49463-85.5961-28.05809 5.8663-9.37498 77.8408-11.63099 15.8088-8.20519-6.6511 18.11493-146.4743-27.38964 4.4292-16.89501 140.7242-13.93714 19.1845-6.91843-5.7487 11.59757-85.7778-27.95783 5.7152-12.95117 99.4155 24.61559 19.3008 24.23122-32.7379 25.31745 20.2553 24.38163-33.155 26.1363 22.7259 25.78537-34.1243 20.95584 18.4492 36.2466-39.3876 11.1296-83.1041zm66.3434 57.1509-11.28 13.8369-6.0327-5.1965 9.1911-72.3421 15.1905 8.0548zm245.688-103.5412 13.2185 15.373-16.4104 9.0414zm70.2705-14.373 12.1658 14.5227-15.0568 8.5227zm1.7881 57.0186-8.0548-6.7673 1.6544-13.2687 37.6002-21.274-30.3308-37.5668-27.657 24.1483-6.5007 52.1898-36.8481 20.286-8.7734-7.2018 1.8048-14.0374 40.8756-22.5441-32.9378-39.7553-30.0634 25.5842-6.3503 49.532-13.3522 12.9358-21.0227-41.5106 47.0921-42.9652-21.3736 3.1083-35.4611 30.1965 8.4725-67.6296-25.6349 3.5428-14.3048 115.842-15.5247 17.0614-3.6597-3.0748 9.3081-73.4945-27.6069 6.3329-8.623 66.4597-12.266 14.8396-5.2306-4.5455 9.258-72.8929-27.8074 5.5308-8.6063 68.1642-12.8676 16.3784-5.6484-4.9479 9.5923-76.1188-27.7406 5.9652-.635 5.9171-19.3683-9.3422-27.2225 34.7593-7.871 62.0814 26.3201 22.3769 24.1644-31.1496 20.7553 17.6309 22.6604-29.0948 19.4852 17.0615 21.3903-28.0414 20.3877 17.7138 27.6069-29.9959 21.0226 16.6604 6.3002-50.9183 22.1089 45.3542 29.3281-28.5762 19.0341 16.0254 56.701-31.3168 14.4886 12.5 52.0721-30.4465 1.4204-11.1804z"/></g></svg>