<svg xmlns="http://www.w3.org/2000/svg" height="800" width="1200" overflow="visible" viewBox="-86.3625 -33.24125 748.475 199.4475"><g clip-rule="evenodd" fill-rule="evenodd"><path d="M147.776 86.486H161.1c5.199 0 7.176 1.794 7.176 6.188 0 4.231-1.978 6.023-7.176 6.023h-13.325zm-20.643 44.443h20.644v-18.072h22.112c14.64 0 19.91-8.624 19.91-19.774 0-12.943-5.42-20.267-20.06-20.267h-42.606zm125.036-43.954h-34.917v7.814h32.432v14.165h-32.432v7.813h34.917v14.162h-55.561V72.816h55.56zm29.285-.489h13.324c5.198 0 7.176 1.794 7.176 6.188 0 4.231-1.978 6.023-7.176 6.023h-13.324zm-20.644 44.443h20.644v-18.072h22.108c14.644 0 19.916-8.624 19.916-19.774 0-12.943-5.42-20.267-20.063-20.267H260.81zm82.65-24.662c-10.101-1.712-14.271-8.223-14.271-16.36 0-15.06 13.25-19.126 30.23-19.126 23.278 0 32.87 6.753 33.603 19.045h-24.013c0-2.361-1.245-3.829-3.145-4.642-1.831-.893-4.172-1.218-6.444-1.218-6.15 0-8.27 1.707-8.27 4.151 0 1.625.656 2.687 2.706 3.011l24.67 4.068c10.397 1.709 16.84 7.081 16.84 16.927 0 14.167-10.396 20.841-33.604 20.841-15.885 0-33.236-2.441-33.308-19.534h24.89c.07 1.951.732 3.253 2.198 4.149 1.533.815 3.804 1.223 7.024 1.223 6.44 0 8.2-1.955 8.2-4.723 0-1.709-.953-3.417-3.73-3.903zm79.28 24.662h-20.642V72.816h20.643zm76.508-22.627c-1.318 7.651-3.664 13.837-8.79 18.068-5.047 4.233-12.956 6.594-25.545 6.594-12.518 0-35.725-.979-35.725-31.09 0-30.117 23.207-31.094 35.725-31.094 12.442 0 31.624 1.789 34.335 24.826h-23.28c-.586-4.155-3.08-10.177-11.055-10.177-8.423 0-13.766 4.639-13.766 16.444 0 11.802 5.199 16.438 12.739 16.438 6.517 0 10.397-3.011 12.08-10.01h23.282zm27.011-6.427c0-11.806 5.346-16.444 13.766-16.444 8.417 0 13.764 4.639 13.764 16.444 0 11.802-5.347 16.438-13.764 16.438-8.42-.001-13.766-4.637-13.766-16.438zm-21.964 0c0 30.11 23.207 31.09 35.729 31.09 12.519 0 35.726-.979 35.726-31.09 0-30.117-23.207-31.094-35.726-31.094-12.522 0-35.73.976-35.73 31.094zM95.939 73.392c1.333-27.881-22.711-59.279-55.49-63.16l.056-.381c32.315 0 57.088 29.916 57.088 53.517-.031 4.913-.42 7.957-1.111 10.167zm-1.958 3.544c-2.15 2.627-4.854 5.272-8.022 7.783C80.13 51.2 55.499 21.89 38.086 13.335l-.373.26c17.513 14.373 38.4 42.288 46.524 72.439a67.879 67.879 0 01-13.341 7.64C54.37 74.828 38.963 38.482 33.998 15.418l-.505.152c.112 22.388 16.007 60.394 35.39 78.939a66.812 66.812 0 01-13.785 3.809C36.517 90.957 23.29 67.381 23.29 43.23c0-15.766 4.807-25.519 5.737-27.515l-.396-.157c-1.125 1.702-8.167 11.45-8.167 28.471 0 27.299 13.463 48.165 31.337 54.736a61.522 61.522 0 01-19.152-.899l-.133.416c1.912.704 8.399 3.427 18.295 3.427 22.383 0 37.514-13.907 43.605-24.478z" fill="#28458E"/><path d="M48.574 0C31.606 0 11.71 12.246 11.71 23.44c0 4.33 3.96 7.988 12.159 7.988 19.03 0 36.712-13.075 36.712-23.242C60.58 2.836 55.443 0 48.574 0zm6.774 7.87c0 8.57-16.457 19.046-30.214 19.046-6.078 0-9.362-2.392-9.362-6.339 0-8.693 16.644-18.991 29.548-18.991 8.413 0 10.028 4.281 10.028 6.284z" fill="#0096D6"/><path d="M4.95 28.623c-.477.825-2.387 4.565-2.387 8.397 0 7.107 7.18 13.705 20.389 13.705 25.409 0 54.765-18.703 54.765-36.064 0-7.793-7.377-12.03-12.5-12.906l-.095.304c1.593.504 7.429 3.217 7.429 10.159 0 13.833-25.92 32.681-51.737 32.681-9.884 0-16.111-4.879-16.111-11.986 0-2.248.468-3.729.592-4.158z" fill="#EB7B30"/><path d="M88.193 15.959c.697.529 4.882 4.017 4.882 10.613 0 22.49-35.238 44.605-66.391 44.605-18.578 0-27.047-9.173-26.672-17.318h.333c.728 4.23 6.76 11.799 23.02 11.799 31.192 0 66.019-22.883 66.019-42.932 0-3.439-.934-5.582-1.462-6.535z" fill="#00984A"/><path d="M99.97 36.955c.147.479.906 2.632.906 6.004 0 25.018-35.661 46.436-66.676 46.436-15.963 0-24.3-7.754-26.06-10.903l.285-.21c4.417 3.863 13.117 6.798 23.27 6.798 27.392 0 68.265-20.84 67.9-48.034z" fill="#DF002C"/></g></svg>