<svg viewBox="0 0 200 40" xmlns="http://www.w3.org/2000/svg"><path d="m200 9.843h-4.19v15.026l-12.107-15.026h-4.969v20.228h4.19v-15.026l12.105 15.026h4.971zm-40.701 0h-4.623l-9.939 20.226h4.623l1.243-2.5997c.519-1.0976 1.329-1.5901 2.543-1.5901h7.513l-.896-1.9069c-.549-1.1854-1.445-1.7332-2.773-1.7332h-3.842l3.842-7.9749 7.627 15.805h4.624zm-24.043 0h-4.335v20.226h4.335zm-13.894 0h-4.623l-7.339 15.662-7.34-15.662h-4.6227l9.6507 20.228h4.623zm-33.406 0h-4.3349v20.226h4.3349zm-15.584 6.7344c0-3.4091-2.3116-6.7323-7.2821-6.7323h-12.858v20.226h4.335v-16.586h7.8891c2.428 0 3.5828 1.1854 3.5828 3.0923 0 1.9355-1.1568 3.1209-3.5828 3.1209h-3.3559c-1.5206 0-2.375.8543-2.375 2.3749v1.2672h2.4076c1.1262 0 1.9642.3761 2.6591 1.2712l4.2756 5.4611h5.316l-5.9516-7.5703c3.1781-.7255 4.9399-2.8061 4.9399-5.925z"/><path d="m22.102 24.256c1.0383-.9483 2.8675-2.7223 3.5481-3.5174.3106-.3515.2902-.7909.2902-.7909s.0204-.4395-.2902-.791c-.6806-.795-2.5098-2.5691-3.5481-3.5174-.4251-.3965-.5273-.6458-.5273-1.1323v-5.3772c0-.25548.2432-.36789.4497-.18803 2.3156 2.144 7.4742 7.2556 9.2032 9.236.8257.8768.7501 1.77.7501 1.77s.0756.8911-.7501 1.7699c-1.7311 1.9805-6.8897 7.092-9.2032 9.236-.2065.1799-.4497.0674-.4497-.188v-5.3773c.0021-.4885.1022-.7358.5273-1.1323zm-3.0453-.0041c-1.0382-.9483-2.8674-2.7224-3.548-3.5174-.3107-.3515-.2903-.791-.2903-.791s-.0204-.4394.2903-.7909c.6806-.7951 2.5098-2.5691 3.548-3.5174.4251-.3965.5273-.6459.5273-1.1323v-5.3936c0-.21664-.2534-.35154-.4496-.16964-2.3156 2.144-7.4742 7.2556-9.2033 9.236-.82774.8768-.75008 1.77-.75008 1.77s-.07562.8911.75008 1.7699c1.7311 1.9805 6.8897 7.0921 9.2033 9.236.2064.1799.4496.0675.4496-.188v-5.3773c0-.4905-.1022-.7398-.5273-1.1343zm-18.977-2.749c2.3279 2.4015 14.922 15.392 17.282 17.266.8237.6602 1.8844 1.1446 3.2149 1.1446 1.3326 0 2.3933-.4844 3.215-1.1446 2.3606-1.8741 14.954-14.865 17.282-17.266.19-.2187.0183-.562-.2678-.562-1.1629 0-3.8587-.0041-5.4835-.0041-.5723 0-.7419.1001-1.1017.4864-.3597.3863-2.15 2.3075-2.15 2.3075-2.2769 2.4546-7.8299 7.8748-9.8594 9.5834-.7623.6418-1.6248.6213-1.6371.6213s-.8748.0205-1.6371-.6213c-2.0295-1.7107-7.5825-7.1309-9.8594-9.5834 0 0-1.7904-1.9212-2.1501-2.3075s-.52935-.4864-1.1016-.4864c-1.6228 0-4.3206.0041-5.4836.0041-.28205 0-.45373.3433-.26365.562zm40.997-3.0922c-2.3279-2.4015-14.922-15.392-17.282-17.266-.8237-.66016-1.8844-1.1445-3.2149-1.1445-1.3326 0-2.3933.48438-3.2149 1.1445-2.3607 1.8742-14.957 14.865-17.285 17.266-.19007.2187-.018394.562.26774.562 1.1629 0 3.8587.0041 5.4836.0041.57227 0 .7419-.1001 1.1016-.4864.35972-.3863 2.1501-2.3075 2.1501-2.3075 2.2768-2.4546 7.8299-7.8748 9.8594-9.5834.7623-.64176 1.6248-.62132 1.6371-.62132.0122 0 .8747-.02044 1.6371.62132 2.0295 1.7107 7.5825 7.1308 9.8593 9.5834 0 0 1.7904 1.9212 2.1501 2.3075s.5294.4864 1.1016.4864c1.6228 0 4.3207-.0041 5.4836-.0041.2861.0021.4558-.3433.2657-.562z" fill="#ffb100"/></svg>