<?xml version="1.0" encoding="UTF-8"?>
<svg version="1.1" viewBox="0 0 200 40" xmlns="http://www.w3.org/2000/svg"><path d="m200 9.843h-4.19v15.026l-12.107-15.026h-4.969v20.228h4.19v-15.026l12.105 15.026h4.971zm-40.701 0h-4.623l-9.939 20.226h4.623l1.243-2.5997c0.519-1.0976 1.329-1.5901 2.543-1.5901h7.513l-0.896-1.9069c-0.549-1.1854-1.445-1.7332-2.773-1.7332h-3.842l3.842-7.9749 7.627 15.805h4.624zm-24.043 0h-4.335v20.226h4.335zm-13.894 0h-4.623l-7.339 15.662-7.34-15.662h-4.6227l9.6507 20.228h4.623zm-33.406 0h-4.3349v20.226h4.3349zm-15.584 6.7344c0-3.4091-2.3116-6.7323-7.2821-6.7323h-12.858v20.226h4.335v-16.586h7.8891c2.428 0 3.5828 1.1854 3.5828 3.0923 0 1.9355-1.1568 3.1209-3.5828 3.1209h-3.3559c-1.5206 0-2.375 0.8543-2.375 2.3749v1.2672h2.4076c1.1262 0 1.9642 0.3761 2.6591 1.2712l4.2756 5.4611h5.316l-5.9516-7.5703c3.1781-0.7255 4.9399-2.8061 4.9399-5.925z"/><path d="m22.102 24.256c1.0383-0.9483 2.8675-2.7223 3.5481-3.5174 0.3106-0.3515 0.2902-0.7909 0.2902-0.7909s0.0204-0.4395-0.2902-0.791c-0.6806-0.795-2.5098-2.5691-3.5481-3.5174-0.4251-0.3965-0.5273-0.6458-0.5273-1.1323v-5.3772c0-0.25548 0.2432-0.36789 0.4497-0.18803 2.3156 2.144 7.4742 7.2556 9.2032 9.236 0.8257 0.8768 0.7501 1.77 0.7501 1.77s0.0756 0.8911-0.7501 1.7699c-1.7311 1.9805-6.8897 7.092-9.2032 9.236-0.2065 0.1799-0.4497 0.0674-0.4497-0.188v-5.3773c0.0021-0.4885 0.1022-0.7358 0.5273-1.1323zm-3.0453-0.0041c-1.0382-0.9483-2.8674-2.7224-3.548-3.5174-0.3107-0.3515-0.2903-0.791-0.2903-0.791s-0.0204-0.4394 0.2903-0.7909c0.6806-0.7951 2.5098-2.5691 3.548-3.5174 0.4251-0.3965 0.5273-0.6459 0.5273-1.1323v-5.3936c0-0.21664-0.2534-0.35154-0.4496-0.16964-2.3156 2.144-7.4742 7.2556-9.2033 9.236-0.82774 0.8768-0.75008 1.77-0.75008 1.77s-0.07562 0.8911 0.75008 1.7699c1.7311 1.9805 6.8897 7.0921 9.2033 9.236 0.2064 0.1799 0.4496 0.0675 0.4496-0.188v-5.3773c0-0.4905-0.1022-0.7398-0.5273-1.1343zm-18.977-2.749c2.3279 2.4015 14.922 15.392 17.282 17.266 0.8237 0.6602 1.8844 1.1446 3.2149 1.1446 1.3326 0 2.3933-0.4844 3.215-1.1446 2.3606-1.8741 14.954-14.865 17.282-17.266 0.19-0.2187 0.0183-0.562-0.2678-0.562-1.1629 0-3.8587-0.0041-5.4835-0.0041-0.5723 0-0.7419 0.1001-1.1017 0.4864-0.3597 0.3863-2.15 2.3075-2.15 2.3075-2.2769 2.4546-7.8299 7.8748-9.8594 9.5834-0.7623 0.6418-1.6248 0.6213-1.6371 0.6213s-0.8748 0.0205-1.6371-0.6213c-2.0295-1.7107-7.5825-7.1309-9.8594-9.5834 0 0-1.7904-1.9212-2.1501-2.3075s-0.52935-0.4864-1.1016-0.4864c-1.6228 0-4.3206 0.0041-5.4836 0.0041-0.28205 0-0.45373 0.3433-0.26365 0.562zm40.997-3.0922c-2.3279-2.4015-14.922-15.392-17.282-17.266-0.8237-0.66016-1.8844-1.1445-3.2149-1.1445-1.3326 0-2.3933 0.48438-3.2149 1.1445-2.3607 1.8742-14.957 14.865-17.285 17.266-0.19007 0.2187-0.018394 0.562 0.26774 0.562 1.1629 0 3.8587 0.0041 5.4836 0.0041 0.57227 0 0.7419-0.1001 1.1016-0.4864 0.35972-0.3863 2.1501-2.3075 2.1501-2.3075 2.2768-2.4546 7.8299-7.8748 9.8594-9.5834 0.7623-0.64176 1.6248-0.62132 1.6371-0.62132 0.0122 0 0.8747-0.02044 1.6371 0.62132 2.0295 1.7107 7.5825 7.1308 9.8593 9.5834 0 0 1.7904 1.9212 2.1501 2.3075s0.5294 0.4864 1.1016 0.4864c1.6228 0 4.3207-0.0041 5.4836-0.0041 0.2861 0.0021 0.4558-0.3433 0.2657-0.562z" fill="#ffb100"/></svg>
