<svg enable-background="new 0 0 101.4212036 21.5910034" viewBox="0 0 101.4212036 21.5910034" xmlns="http://www.w3.org/2000/svg"><path d="m0 0c12.4320068 1.6810303 34.875 1.8740234 49.4599915 1.8740234s37.0280151-.1929931 49.4599914-1.8740234c-1.4119873 2.8920288-2.3919983 6.6359863-2.3919983 10.7949829 0 4.1600342.980011 7.9040527 2.3919983 10.7960205-12.4319763-1.6809692-34.875-1.875-49.4599915-1.875s-37.0279846.1940308-49.4599914 1.875c1.4119873-2.8919678 2.3909912-6.6359863 2.3909912-10.7960205 0-4.1589966-.9790039-7.9029541-2.3909912-10.7949829m95.7900085 10.7949829c0-3.4349976.6749878-6.8969727 1.9159851-9.8959961-9.5280151 1.1520386-25.3420105 1.7130127-48.2460022 1.7130127s-38.717987-.5609741-48.2460021-1.7130127c1.2409973 2.9990234 1.9150085 6.4609985 1.9150085 9.8959961 0 3.4350586-.6740112 6.8980103-1.9150085 9.8970337 9.5299988-1.1530151 25.3439941-1.7139893 48.2460022-1.7139893s38.7149963.5609741 48.2460022 1.7139893c-1.2409974-2.9990234-1.9159852-6.4619751-1.9159852-9.8970337" fill="#4d4d4f"/><path d="m47.7053833 10.4884644h-1.4299927l.8450012-1.4639893h-1.6900024l.7139893-1.2369995-.5599976-.3239746-.7149963 1.2379761-.8450012-1.4649658-.8450012 1.4649658-.7149964-1.2389527-.5610047.3239746.7149963 1.2379761h-1.690979l.8450012 1.4639893h-1.428009v.6480103h1.4289856l-.8459778 1.4630127 1.690979.0010376-.7149963 1.2369995.5610046.3249512.7149963-1.2379761.8450012 1.4639893.8450012-1.4649658.7149963 1.2389526.5599976-.3249512-.7139893-1.2380371 1.6900024.0010376-.8450012-1.4640503h1.4299927v-.6480103zm-4.7109985 1.4600219h-.9360046l.4680176-.8120117h.9369812zm-.4679871-1.4600219-.4680176-.8109741.9360046-.0009766.4689941.8119507zm1.4979858 2.5940551-.4679871-.8110352.4679871-.8109741.4679871.8109741zm0-2.9180298-.4679871-.8109741.4679871-.8110352.4679871.8110352zm1.0289917 1.7839966-.4679871-.8120117h.9370117l.4679871.8120117zm.4690247-1.4600219h-.9370117l.4679871-.8109741h.9370117z" fill="#0080c5"/><g fill="#4d4d4f"><path d="m14.4407043 9.8382568h-4.3400269c-.4239807-.0009766-.769989-.3469849-.769989-.7699585v-.2609863c0-.4260254.3450012-.7709961.769989-.7709961h6.3980103v-1.993042h-6.3980103c-1.5239868 0-2.7630005 1.2390137-2.7630005 2.7640381v.2609863c0 1.5230103 1.2390137 2.7630005 2.7630005 2.7630005h4.3400269c.4249878.0009766.7709961.3460083.7719727.7699585v.2600098c-.0009766.4250488-.3469849.7720337-.7719727.7730103h-6.6640014v1.9920044h6.6640015c.7389832 0 1.4329834-.2890015 1.9549866-.8099976.5220032-.5200195.8079834-1.2139893.8079834-1.9539795v-.2610474c0-.7389526-.2859802-1.4329834-.8079834-1.9549561-.5220033-.520996-1.2170106-.8080444-1.9549867-.8080444"/><path d="m26.1026001 12.8617554c0 .4260254-.3530273.7720337-.7870178.7720337h-3.9949951c-.4230042-.0009766-.7690125-.3469849-.7690125-.7720337v-6.8189698h-1.993988v6.8189697c0 1.5240479 1.2389832 2.7640381 2.7630005 2.7640381h3.9949951c.7460022 0 1.4450073-.2869873 1.9680176-.809021.5229797-.5199585.8109741-1.2139893.8109741-1.9550171v-6.8189697h-1.9919739z"/><path d="m36.6826172 6.0427856h-6.7580261v9.5830078h6.7580261c.7459717 0 1.4439697-.2880249 1.9659729-.809021.5240173-.5199585.8120117-1.2139893.8120117-1.9549561v-.3829956c0-.6589966-.223999-1.2810059-.6340027-1.7700195.4100037-.5009766.6340027-1.1259766.6340027-1.7789917v-.1229858c0-.7400513-.2879944-1.4349976-.8120117-1.9550171-.5220032-.5209961-1.2209778-.809021-1.9659729-.809021m-4.7660217 5.6660157h4.7660217c.4329834 0 .7859802.3449707.7859802.7700195v.3829956c0 .4259644-.3529968.7730103-.7859802.7730103h-4.7660217zm4.7660217-2.0090332h-4.7660217v-1.6629639h4.7660217c.4329834 0 .7859802.3449707.7859802.7700195v.1229858c0 .4309693-.3460083.768982-.7859802.7699586"/><path d="m59.4384155 6.8527832c-.5230103.5210571-.8100281 1.2140503-.8100281 1.9540405v4.0549927c0 .7399902.2870178 1.434021.8100281 1.9539795.519989.5220337 1.2149963.8099976 1.9539795.8099976h6.7740173v-1.9920044h-6.7730103c-.4259949-.0009766-.7720032-.3469849-.7720032-.7719727v-1.0319824h6.4070129v-1.9920044h-6.4070129v-1.0310059c0-.4249878.3460083-.7700195.7709961-.7700195h6.7740173v-1.9940186h-6.7740172c-.7389831 0-1.4339905.2880249-1.9539795.8099976"/><path d="m79.7969971 10.0664673v-1.2600098c0-.7390137-.2879944-1.4329834-.8110046-1.9550171-.5229797-.5209961-1.2219849-.80896-1.9679871-.80896h-6.7579956v9.5830078h1.9930115v-2.7810059h2.572998l2.7849731 2.7810059h2.8580017l-2.8559875-2.8430176c1.2640076-.2719726 2.1820068-1.3829955 2.1839905-2.7160033m-7.5439759-2.0300293h4.7649841c.4410095 0 .7860107.3380127.7860107.7700195v1.2600098c0 .4240112-.3520203.7689819-.7860107.7700195h-4.7649841z"/><path d="m90.5450134 6.8522949c-.5220032-.5220337-1.2210083-.809021-1.9670105-.809021h-3.993988c-.7399902 0-1.4339905.2869873-1.9550171.8099976-.5219727.5209961-.8089905 1.2139893-.8089905 1.9539795v4.0550537c0 .7389526.2870178 1.4329834.8089905 1.9530029.5200195.5219727 1.2140198.8099976 1.9550171.8099976h3.993988c.7460022 0 1.4450073-.2870483 1.9660034-.8080444.5240173-.5189819.8120117-1.2129517.8120117-1.9549561v-4.0550537c.0000001-.7419434-.2879943-1.4359741-.8110046-1.9549561m-6.7309875 1.9549561c.0009766-.4249878.3459778-.7709961.769989-.7709961h3.993988c.4330139 0 .7860107.3450317.7860107.7709961v4.0550537c0 .4249878-.3529968.7719727-.7860107.7719727h-3.993988c-.4240112-.0009766-.7690125-.3480225-.769989-.7719727z"/><path d="m50.6100159 13.6340942c-.105011 0-.1880188-.0839844-.1880188-.1879883 0-.0629883.0310059-.1189575.07901-.1539917l5.677002-3.5189819c.677002-.4520264 1.052002-1.1220093 1.0499878-1.8170166 0-.5050049-.2120056-.9949951-.5820007-1.3410034-.3919983-.3699951-.9459839-.5719604-1.5579834-.5719604h-7.1719971v1.992981h6.5839843c.105011 0 .1889954.0839844.1889954.1879883 0 .0629883-.0319824.1199951-.0799866.1539917l-5.8590088 3.6359862c-.6319885.3959961-.9809875 1.0150146-.980011 1.6760254-.0009766.5050049.2200012.9990234.6060181 1.3530273.4119873.3759766.993988.5829468 1.6390076.5829468h7.0579834v-1.9920044z"/></g><path d="m99.6322021.9523926c0-.4920044.4029846-.8949585.8999939-.8949585.4940186 0 .8890076.4029541.8890076.8949585 0 .4980469-.394989.901001-.8890076.901001-.4970092 0-.8999939-.4029541-.8999939-.901001m1.6480103 0c0-.4359741-.3120117-.7769775-.7480164-.7769775-.4379883 0-.7579956.3410034-.7579956.7769775 0 .44104.3200073.7820435.7579956.7820435.4360047-.0000001.7480164-.3410035.7480164-.7820435m-.3000183.5020141h-.1470032l-.2859802-.4619751h-.2260132v.4619751h-.1229858v-1.0020141h.4379883c.2650146 0 .3559875.1000366.3559875.2650146 0 .1970215-.1380005.2709961-.3149719.2750244zm-.4709778-.559021c.1419983 0 .3509827.0240479.3509827-.1799927 0-.1560059-.1289978-.1749878-.2519836-.1749878h-.2870178v.3549805z" fill="#231f20"/></svg>