<svg xmlns="http://www.w3.org/2000/svg" height="800" width="1200" xml:space="preserve" y="0" x="0" id="レイヤー_1" version="1.1" viewBox="-58.8 -58.3 509.6 349.8"><style id="style161" type="text/css">.st0{fill:#199ecf}.st2{fill:#54555a}</style><g transform="translate(-4 -2.4)" id="g199"><g id="g197"><path id="polygon163" class="st0" d="M4 35.7h41V163h39.3V35.7h41.3V2.4H4z"/><path id="polygon165" class="st0" d="M293.2 2.4V163H396v-35.1h-63.5V2.4z"/><path id="polygon167" class="st0" d="M260 163v-35.1h-69.5V35.7H260V2.4H152.6V163z"/><path id="polygon169" fill="#75b42b" d="M204.5 77.5v24.2h40.7V61.6h-40.7z"/><path id="polygon171" class="st2" d="M20.7 235h-6.6v-27.8H4v-5.5h26.7v5.5h-10z"/><path id="path173" d="M62.9 218.4c0 9.7-6 17.1-16.2 17.1-9.7 0-15.9-6-15.9-16.9 0-10 6.1-17.3 16-17.3 9.5 0 16.1 5.1 16.1 17.1m-7 0c0-8.4-2.9-11.7-9.1-11.7-6.1 0-9 3.5-9 11.9 0 7.4 2.6 11.4 8.9 11.4 6.2 0 9.2-3.8 9.2-11.6" class="st2"/><path id="polygon175" class="st2" d="M76.3 215.9l9.6-14.2h7.4l-11.2 15.9L94.4 235h-8.1l-9.9-14.2h-2V235h-6.7v-33.3h6.7v14.2z"/><path id="polygon177" class="st2" d="M122.7 201.7L112.3 222v13h-6.6v-12.9l-11-20.4h7.2l3.7 7.5 3.7 7.5 6.8-15z"/><path id="path179" d="M153.2 218.4c0 9.7-6 17.1-16.2 17.1-9.7 0-15.9-6-15.9-16.9 0-10 6.1-17.3 16-17.3 9.5 0 16.1 5.1 16.1 17.1m-7 0c0-8.4-2.9-11.7-9.1-11.7-6.1 0-9 3.5-9 11.9 0 7.4 2.6 11.4 8.9 11.4 6.2 0 9.2-3.8 9.2-11.6" class="st2"/><path id="polygon181" class="st2" d="M176.9 207.2v8.1h13.4v5.4h-13.4v8.7h14.8v5.6h-21.5v-33.3h21.6v5.5z"/><path id="polygon183" class="st2" d="M217.5 229.4v5.6h-20.3v-33.3h6.7v27.7z"/><path id="polygon185" class="st2" d="M227.6 207.2v8.1h13.3v5.4h-13.3v8.7h14.8v5.6h-21.5v-33.3h21.6v5.5z"/><path id="polygon187" class="st2" d="M290.6 235H284v-27.8h-10v-5.5h26.7v5.5h-10.1z"/><path id="path189" d="M304.1 201.7h11.3c8.9 0 12.3 4.2 12.3 10.7 0 4.5-1.9 7.9-5.6 9.7l7.7 12.8H322l-6.4-11.5h-4.9V235h-6.6zm16.6 10.9c0-3.7-1.5-5.4-5.9-5.4h-4v10.9h4.2c3.3 0 5.7-1.4 5.7-5.5" class="st2"/><path id="path191" d="M362.8 218.4c0 9.7-6 17.1-16.2 17.1-9.7 0-15.9-6-15.9-16.9 0-10 6.1-17.3 16-17.3 9.5 0 16.1 5.1 16.1 17.1m-7 0c0-8.4-2.9-11.7-9.2-11.7-6.1 0-9 3.5-9 11.9 0 7.4 2.6 11.4 8.9 11.4 6.3 0 9.3-3.8 9.3-11.6" class="st2"/><path id="polygon193" class="st2" d="M367 201.7h7.1l9.6 14 6.2 9.3-.1-9.1v-14.2h6.2V235h-6.7l-9.8-14.3-6.3-9.7v24H367z"/><path id="path195" d="M271.2 226.9c-2.1 1.9-6 3.2-9.1 3.2-6.1 0-9.4-3.9-9.4-11.7 0-7.7 3.6-11.6 9.3-11.6 2.6 0 5.4.5 8.5 2.1v-6.1c-2.3-.9-5.6-1.4-8.2-1.4-9.6 0-16.6 6.3-16.6 17.2 0 11.4 5.8 17 15.7 17 3.2 0 7.3-.5 9.8-2.4z" class="st2"/></g></g></svg>